<?xml version="1.0" encoding="UTF-8" standalone="no"?>
<svg
   xmlns:dc="http://purl.org/dc/elements/1.1/"
   xmlns:cc="http://creativecommons.org/ns#"
   xmlns:rdf="http://www.w3.org/1999/02/22-rdf-syntax-ns#"
   xmlns:svg="http://www.w3.org/2000/svg"
   xmlns="http://www.w3.org/2000/svg"
   xmlns:sodipodi="http://sodipodi.sourceforge.net/DTD/sodipodi-0.dtd"
   xmlns:inkscape="http://www.inkscape.org/namespaces/inkscape"
   version="1.1"
   id="Layer_1"
   x="0px"
   y="0px"
   viewBox="0 0 73.45 122.88"
   style="enable-background:new 0 0 73.45 122.88"
   xml:space="preserve"
   sodipodi:docname="first-medal.svg"
   inkscape:version="0.92.4 (unknown)"><metadata
     id="metadata13"><rdf:RDF><cc:Work
         rdf:about=""><dc:format>image/svg+xml</dc:format><dc:type
           rdf:resource="http://purl.org/dc/dcmitype/StillImage" /></cc:Work></rdf:RDF></metadata><defs
     id="defs11" /><sodipodi:namedview
     pagecolor="#ffffff"
     bordercolor="#666666"
     borderopacity="1"
     objecttolerance="10"
     gridtolerance="10"
     guidetolerance="10"
     inkscape:pageopacity="0"
     inkscape:pageshadow="2"
     inkscape:window-width="714"
     inkscape:window-height="480"
     id="namedview9"
     showgrid="false"
     inkscape:zoom="1.920573"
     inkscape:cx="36.724998"
     inkscape:cy="61.439999"
     inkscape:window-x="69"
     inkscape:window-y="34"
     inkscape:window-maximized="0"
     inkscape:current-layer="Layer_1" /><style
     type="text/css"
     id="style2">.st0{fill-rule:evenodd;clip-rule:evenodd;}</style><g
     id="g6"
     style="fill:#ffffff"><path
       class="st0"
       d="M43.78,70.6v31.1h-8.59V81.36c-1.39,1.05-2.73,1.9-4.04,2.55c-1.3,0.65-2.93,1.27-4.89,1.87v-6.92 c2.89-0.94,5.14-2.07,6.74-3.38c1.6-1.32,2.86-2.94,3.76-4.87H43.78L43.78,70.6z M46.07,50.64c2.2,0.58,4.32,1.36,6.34,2.31 L55.59,3h6.58l-5.35,52.42c10.01,6.56,16.63,17.88,16.63,30.74c0,20.28-16.44,36.72-36.72,36.72C16.44,122.88,0,106.44,0,86.16 C0,73.65,6.26,62.6,15.81,55.97L11.27,3h6.58l2.36,50.35c2.16-1.09,4.43-1.97,6.81-2.61L24.44,0h24.58L46.07,50.64L46.07,50.64z M36.72,58.05c15.52,0,28.1,12.58,28.1,28.1s-12.58,28.1-28.1,28.1c-15.52,0-28.1-12.58-28.1-28.1S21.2,58.05,36.72,58.05 L36.72,58.05z"
       id="path4"
       style="fill:#ffffff" /></g></svg>